# xmcd
# 
# Track frame offsets:
#     150
#     12220
#     27172
#     69302
# 
# Disc length: 1294
# 
# Revision: 0
# Processed by: cddbd v1.5.2PL0 Copyright (c) Steve Scherf et al.
# Submitted via: fre:ac v1.0.17
# 
DISCID=25050c04
DTITLE=Various Artist - Ouverture Levante
DYEAR=1997
DGENRE=
TTITLE0=Christian Bollmann - Schweben über dem Muster
TTITLE1=Christian Boll - In nomine Deo
TTITLE2=Johann Sebastian Bach  - Toccata und Fude D-moll
TTITLE3=Georg Frierich Händel - Feuerwerksmusik
EXTD=
EXTT0=
EXTT1=
EXTT2=
EXTT3=
PLAYORDER=
